<svg width="25" height="37" viewBox="0 0 25 37" fill="none" xmlns="http://www.w3.org/2000/svg">
<path fill-rule="evenodd" clip-rule="evenodd" d="M8.88184 0.673828C8.17515 0.673828 7.49741 0.954557 6.99771 1.45426C6.49801 1.95396 6.21729 2.6317 6.21729 3.33838H2.66455C1.95787 3.33838 1.28013 3.61911 0.780429 4.11881C0.280728 4.61851 0 5.29625 0 6.00293V33.5366C0 34.2433 0.280728 34.921 0.780429 35.4207C1.28013 35.9204 1.95787 36.2012 2.66455 36.2012H22.2046C22.9113 36.2012 23.589 35.9204 24.0887 35.4207C24.5884 34.921 24.8691 34.2433 24.8691 33.5366V6.00293C24.8691 5.29625 24.5884 4.61851 24.0887 4.11881C23.589 3.61911 22.9113 3.33838 22.2046 3.33838H18.6519C18.6519 2.6317 18.3711 1.95396 17.8714 1.45426C17.3717 0.954557 16.694 0.673828 15.9873 0.673828H8.88184ZM7.99365 3.33838C7.99365 3.10282 8.08723 2.87691 8.25379 2.71034C8.42036 2.54377 8.64627 2.4502 8.88184 2.4502H15.9873C16.2229 2.4502 16.4488 2.54377 16.6153 2.71034C16.7819 2.87691 16.8755 3.10282 16.8755 3.33838V5.11475C16.8755 5.35031 16.7819 5.57622 16.6153 5.74279C16.4488 5.90935 16.2229 6.00293 15.9873 6.00293H8.88184C8.64627 6.00293 8.42036 5.90935 8.25379 5.74279C8.08723 5.57622 7.99365 5.35031 7.99365 5.11475V3.33838ZM7.99365 10.4438V13.1084H5.3291V14.8848H7.99365V17.5493H9.77002V14.8848H12.4346V13.1084H9.77002V10.4438H7.99365ZM6.21729 20.2139C5.98172 20.2139 5.75581 20.3074 5.58924 20.474C5.42268 20.6406 5.3291 20.8665 5.3291 21.1021C5.3291 21.3376 5.42268 21.5635 5.58924 21.7301C5.75581 21.8967 5.98172 21.9902 6.21729 21.9902H18.6519C18.8874 21.9902 19.1133 21.8967 19.2799 21.7301C19.4465 21.5635 19.54 21.3376 19.54 21.1021C19.54 20.8665 19.4465 20.6406 19.2799 20.474C19.1133 20.3074 18.8874 20.2139 18.6519 20.2139H6.21729ZM5.3291 25.543C5.3291 25.3074 5.42268 25.0815 5.58924 24.9149C5.75581 24.7484 5.98172 24.6548 6.21729 24.6548H18.6519C18.8874 24.6548 19.1133 24.7484 19.2799 24.9149C19.4465 25.0815 19.54 25.3074 19.54 25.543C19.54 25.7785 19.4465 26.0044 19.2799 26.171C19.1133 26.3376 18.8874 26.4312 18.6519 26.4312H6.21729C5.98172 26.4312 5.75581 26.3376 5.58924 26.171C5.42268 26.0044 5.3291 25.7785 5.3291 25.543ZM6.21729 29.0957C5.98172 29.0957 5.75581 29.1893 5.58924 29.3558C5.42268 29.5224 5.3291 29.7483 5.3291 29.9839C5.3291 30.2194 5.42268 30.4454 5.58924 30.6119C5.75581 30.7785 5.98172 30.8721 6.21729 30.8721H18.6519C18.8874 30.8721 19.1133 30.7785 19.2799 30.6119C19.4465 30.4454 19.54 30.2194 19.54 29.9839C19.54 29.7483 19.4465 29.5224 19.2799 29.3558C19.1133 29.1893 18.8874 29.0957 18.6519 29.0957H6.21729Z" fill="#37C38F"/>
</svg>
