<svg width="44" height="44" viewBox="0 0 44 44" fill="none" xmlns="http://www.w3.org/2000/svg">
<circle cx="22" cy="22" r="21.5" stroke="#37C38F"/>
<path fill-rule="evenodd" clip-rule="evenodd" d="M15.8982 15.3237C15.9299 14.9294 16.0326 14.5551 16.1931 14.2131H12V15.5908L14.2212 17.2734V32H29.7697V17.2928L32.2685 15.6102V14.2125H22.2448C22.4058 14.5546 22.508 14.9289 22.5402 15.3231H30.7065L28.6591 16.7025V30.8888H15.3318V16.7219L13.486 15.3237H15.8977H15.8982Z" fill="#37C38F"/>
<path fill-rule="evenodd" clip-rule="evenodd" d="M14.2213 16.3036L12.833 14.4989H16.026L17.8307 18.1084H20.3296L22.2732 14.4989H31.4356L29.7697 16.7201V31.4356H27.5485V21.9955H23.1061V31.4356H14.2213V16.3036ZM16.4425 21.9955H20.3296V25.8826H16.4425V21.9955Z" fill="#37C38F"/>
<path d="M12 31.4354C12 31.5827 12.0585 31.7239 12.1626 31.8281C12.2668 31.9322 12.408 31.9907 12.5553 31.9907H31.4356C31.5829 31.9907 31.7241 31.9322 31.8283 31.8281C31.9324 31.7239 31.9909 31.5827 31.9909 31.4354C31.9909 31.2882 31.9324 31.1469 31.8283 31.0428C31.7241 30.9386 31.5829 30.8801 31.4356 30.8801H12.5553C12.408 30.8801 12.2668 30.9386 12.1626 31.0428C12.0585 31.1469 12 31.2882 12 31.4354Z" fill="#37C38F"/>
<path fill-rule="evenodd" clip-rule="evenodd" d="M22.5504 15.3318C22.5504 15.7694 22.4642 16.2026 22.2967 16.6068C22.1293 17.0111 21.8839 17.3784 21.5745 17.6878C21.2651 17.9972 20.8978 18.2426 20.4936 18.41C20.0893 18.5775 19.6561 18.6636 19.2185 18.6636C18.781 18.6636 18.3477 18.5775 17.9435 18.41C17.5393 18.2426 17.172 17.9972 16.8626 17.6878C16.5532 17.3784 16.3078 17.0111 16.1403 16.6068C15.9729 16.2026 15.8867 15.7694 15.8867 15.3318C15.8867 14.4482 16.2377 13.6007 16.8626 12.9759C17.4874 12.351 18.3349 12 19.2185 12C20.1022 12 20.9496 12.351 21.5745 12.9759C22.1993 13.6007 22.5504 14.4482 22.5504 15.3318ZM19.7738 13.6659V14.7765H20.8844V15.8871H19.7738V16.9977H18.6632V15.8871H17.5526V14.7765H18.6632V13.6659H19.7738Z" fill="#37C38F"/>
</svg>
