<svg width="37" height="37" viewBox="0 0 37 37" fill="none" xmlns="http://www.w3.org/2000/svg">
<path fill-rule="evenodd" clip-rule="evenodd" d="M7.01985 6.62977C7.07685 5.91979 7.26185 5.2458 7.55084 4.62981H0V7.11076L3.99992 10.1407V36.6601H31.9993V10.1757L36.4992 7.14576V4.62881H18.4486C18.7386 5.2448 18.9226 5.91879 18.9806 6.62877H33.6863L29.9994 9.11272V34.6592H5.99988V9.14772L2.67594 6.62977H7.01885H7.01985Z" fill="#37C38F"/>
<path fill-rule="evenodd" clip-rule="evenodd" d="M3.99995 8.39437L1.5 5.14444H7.24988L10.4998 11.6443H14.9997L18.4996 5.14444H34.9993L31.9994 9.14436V35.6438H27.9995V18.6442H19.9996V35.6438H3.99995V8.39437ZM7.99987 18.6442H14.9997V25.644H7.99987V18.6442Z" fill="#37C38F"/>
<path d="M0 35.6435C0 35.9087 0.105355 36.1631 0.292887 36.3506C0.48042 36.5382 0.734768 36.6435 0.999979 36.6435H34.9993C35.2645 36.6435 35.5188 36.5382 35.7064 36.3506C35.8939 36.1631 35.9993 35.9087 35.9993 35.6435C35.9993 35.3783 35.8939 35.124 35.7064 34.9364C35.5188 34.7489 35.2645 34.6436 34.9993 34.6436H0.999979C0.734768 34.6436 0.48042 34.7489 0.292887 34.9364C0.105355 35.124 0 35.3783 0 35.6435Z" fill="#37C38F"/>
<path fill-rule="evenodd" clip-rule="evenodd" d="M18.9998 6.64441C18.9998 7.43232 18.8446 8.21252 18.543 8.94046C18.2415 9.6684 17.7996 10.3298 17.2424 10.887C16.6853 11.4441 16.0239 11.886 15.2959 12.1876C14.568 12.4891 13.7878 12.6443 12.9999 12.6443C12.212 12.6443 11.4318 12.4891 10.7038 12.1876C9.97588 11.886 9.31446 11.4441 8.75732 10.887C8.20018 10.3298 7.75824 9.6684 7.45671 8.94046C7.15519 8.21252 7 7.43232 7 6.64441C7 5.05314 7.63213 3.52705 8.75732 2.40185C9.88252 1.27666 11.4086 0.644531 12.9999 0.644531C14.5911 0.644531 16.1172 1.27666 17.2424 2.40185C18.3676 3.52705 18.9998 5.05314 18.9998 6.64441ZM13.9999 3.64447V5.64443H15.9998V7.64439H13.9999V9.64434H11.9999V7.64439H9.99994V5.64443H11.9999V3.64447H13.9999Z" fill="#37C38F"/>
</svg>
