<svg width="36" height="36" viewBox="0 0 36 36" fill="none" xmlns="http://www.w3.org/2000/svg">
<circle cx="18" cy="18" r="18" fill="#E87850"/>
<path d="M11 13.3939C11 12.9899 11.1464 12.6566 11.4392 12.3939C11.732 12.1313 12.1126 12 12.5811 12C13.0412 12 13.4134 12.1293 13.6979 12.3879C13.9907 12.6545 14.1371 13.002 14.1371 13.4303C14.1371 13.8182 13.9949 14.1414 13.7104 14.4C13.4176 14.6667 13.0328 14.8 12.556 14.8H12.5434C12.0833 14.8 11.7111 14.6667 11.4266 14.4C11.1422 14.1333 11 13.798 11 13.3939ZM11.1631 24V15.903H13.9488V24H11.1631ZM15.4923 24H18.278V19.4788C18.278 19.196 18.3115 18.9778 18.3784 18.8242C18.4955 18.5495 18.6733 18.3172 18.9117 18.1273C19.1501 17.9374 19.4492 17.8424 19.8089 17.8424C20.7458 17.8424 21.2143 18.4525 21.2143 19.6727V24H24V19.3576C24 18.1616 23.7072 17.2545 23.1216 16.6364C22.536 16.0182 21.7622 15.7091 20.8002 15.7091C19.721 15.7091 18.8803 16.1576 18.278 17.0545V17.0788H18.2654L18.278 17.0545V15.903H15.4923C15.509 16.1616 15.5174 16.9656 15.5174 18.3152C15.5174 19.6646 15.509 21.5596 15.4923 24Z" fill="white"/>
</svg>
