<svg width="36" height="37" viewBox="0 0 36 37" fill="none" xmlns="http://www.w3.org/2000/svg">
<circle cx="17.9571" cy="18.624" r="17.8419" fill="#37C38F"/>
<g clip-path="url(#clip0_1524_682)">
<path d="M17.6005 10.6174C16.1218 10.6174 14.7036 11.2049 13.658 12.2505C12.6123 13.2961 12.0249 14.7143 12.0249 16.193C12.0249 21.211 17.6005 27.3442 17.6005 27.3442C17.6005 27.3442 23.1761 21.211 23.1761 16.193C23.1761 14.7143 22.5887 13.2961 21.543 12.2505C20.4974 11.2049 19.0792 10.6174 17.6005 10.6174ZM17.6005 18.4233C17.1594 18.4233 16.7282 18.2925 16.3614 18.0474C15.9947 17.8023 15.7088 17.454 15.54 17.0465C15.3712 16.639 15.3271 16.1905 15.4131 15.7579C15.4992 15.3253 15.7116 14.9279 16.0235 14.616C16.3354 14.3041 16.7328 14.0917 17.1654 14.0056C17.598 13.9196 18.0464 13.9637 18.454 14.1326C18.8615 14.3014 19.2098 14.5872 19.4549 14.954C19.6999 15.3207 19.8307 15.7519 19.8307 16.193C19.8307 16.7845 19.5958 17.3518 19.1775 17.77C18.7593 18.1883 18.192 18.4233 17.6005 18.4233Z" fill="white"/>
</g>
<defs>
<clipPath id="clip0_1524_682">
<rect width="17.8419" height="17.8419" fill="white" transform="translate(8.67969 10.0598)"/>
</clipPath>
</defs>
</svg>
