<svg width="120" height="50" viewBox="0 0 120 50" fill="none" xmlns="http://www.w3.org/2000/svg">
<path fill-rule="evenodd" clip-rule="evenodd" d="M119.518 50.0001H0V45.6934H119.518V50.0001Z" fill="#C0C4CC"/>
<path fill-rule="evenodd" clip-rule="evenodd" d="M28.2925 32.919C28.2925 32.919 28.2123 35.5464 27.1677 36.4235C26.0428 37.2258 25.1579 37.445 22.7469 37.445H19.2104V32.919H0.000710441V41.3861H34.321C34.321 41.3861 38.9825 41.6783 42.8408 39.561C46.2964 37.6643 47.7437 34.1598 47.9042 32.919H28.2925ZM0 30.6566V22.1889H38.4996C38.4996 22.1889 41.8757 21.9702 44.5281 23.9405C47.1003 25.9113 47.6627 28.9044 47.8232 30.6566H28.3728C28.3728 30.6566 28.5333 27.6636 27.9708 26.4963C27.4886 25.4005 27.0065 24.014 23.9521 23.7218H19.2097V30.6566H0Z" fill="#C0C4CC"/>
<path fill-rule="evenodd" clip-rule="evenodd" d="M0 11.6777V19.9985H39.143C39.143 19.9985 41.9559 19.9985 43.9656 18.1005C46.0556 16.1296 46.5378 13.1372 46.6181 11.6777H27.1669C27.1669 11.6777 27.1669 14.2323 26.9262 15.4731C26.6045 16.6417 26.1223 18.539 22.5857 18.539H19.2097V11.6777H0Z" fill="#C0C4CC"/>
<path fill-rule="evenodd" clip-rule="evenodd" d="M0 9.4152V0.948075H35.1242C35.1242 0.948075 39.7857 0.875199 43.161 3.42972C46.3759 5.76561 46.6174 9.4152 46.6174 9.4152H27.1662C27.1662 9.4152 26.9255 6.56853 25.398 5.69274C24.4336 5.10909 23.4692 5.03556 22.5041 5.03556H19.2082V9.4152H0ZM49.9934 9.4152C49.9934 9.4152 50.5559 6.49566 53.7707 4.23264C56.9856 1.97027 61.0051 1.0216 65.2646 0.583052C69.5241 0.0722775 73.3021 -0.00124437 78.4465 0.218028C83.5894 0.4373 88.5733 1.1667 91.225 2.48105C93.9591 3.72187 96.0476 6.05776 96.4496 9.4152H77.6419C77.6419 9.4152 77.6419 7.59009 77.2399 6.56854C76.8394 5.47346 76.0348 4.08689 73.4633 4.08689C70.9721 4.08689 69.9268 5.32771 69.4453 6.34926C68.9624 7.37146 69.0433 8.90378 69.0433 9.4152H49.9934Z" fill="#C0C4CC"/>
<path fill-rule="evenodd" clip-rule="evenodd" d="M49.4308 11.6777C49.3506 12.3349 49.3506 13.1372 49.3506 13.7944C49.4308 15.4002 49.7525 16.8597 50.5564 18.3197C51.3603 19.7798 51.8425 19.9991 51.8425 19.9991H92.9136C92.9136 19.9991 91.8689 18.174 85.4392 16.6417C82.546 15.9845 77.6424 15.2545 76.0353 14.8894C74.5085 14.525 72.0173 13.9407 70.8924 13.3565C69.8463 12.7728 69.4458 11.8241 69.3641 11.6777H49.4308ZM100.148 19.9985H119.437V15.546H100.148V19.9985Z" fill="#C0C4CC"/>
<path fill-rule="evenodd" clip-rule="evenodd" d="M100.147 30.6568H119.437V22.1897H100.147V30.6568ZM109.712 0C104.005 0 99.3427 2.91955 99.3427 6.56978C99.3427 10.2194 104.004 13.1389 109.712 13.1389C115.418 13.1389 120 10.2194 120 6.56978C120 2.91955 115.418 0 109.712 0ZM100.147 41.6056H119.437V32.9192H100.147V41.6056ZM96.9324 32.9192C96.9324 32.9192 96.3693 35.693 93.1544 37.9566C90.0198 40.1461 86.0017 41.1677 81.6613 41.6056C77.4004 42.0441 73.704 42.1899 68.4794 41.9706C63.3351 41.7513 58.4329 40.9478 55.6995 39.7069C52.9668 38.3932 50.9578 36.2773 50.4756 32.8457H69.284C69.284 32.8457 69.284 34.5979 69.6845 35.6195C70.0865 36.641 70.8911 38.0276 73.4626 38.0276C75.9538 38.0276 76.9991 36.7868 77.4806 35.7652C77.9635 34.7437 77.9635 33.3571 77.8826 32.9185H96.9324V32.9192ZM97.4132 30.6568C97.4935 29.999 97.5744 29.1238 97.5744 28.3932C97.4942 26.7873 97.1739 25.3272 96.2883 23.8678C95.4851 22.4077 95.0832 22.1884 95.0832 22.1884H53.77C53.77 22.1884 55.2968 24.0864 61.4865 25.5458C64.2994 26.2765 69.2833 27.0059 70.8101 27.371C72.337 27.6631 74.8282 28.2461 75.9531 28.8311C77.0794 29.4889 77.3997 30.4369 77.4799 30.6562H97.4132V30.6568Z" fill="#C0C4CC"/>
</svg>
