<svg width="120" height="50" viewBox="0 0 120 50" fill="none" xmlns="http://www.w3.org/2000/svg">
<path fill-rule="evenodd" clip-rule="evenodd" d="M19.8311 36.9727L23.1946 16.6292L15.8054 16.5724L11.3487 27.0404L11.1664 16.6292L3.42968 16.5724L0 36.917H5.21861L7.04099 24.8742L7.80367 36.9727L11.9455 36.917L16.6507 25.5502L14.745 36.9727H19.8311ZM37.874 36.8892L34.8915 16.6013L29.6566 16.5457L20.064 36.8335L25.4649 36.9182L26.6741 34.273L31.8429 34.2162L32.6383 36.9738L37.874 36.8892ZM30.9156 24.7895L28.8611 30.2201H31.7104L30.9156 24.7895ZM69.1863 36.917H88.306C90.8241 44.8524 95.7942 50 101.146 50C109.198 50 115.759 38.8582 115.759 25.1826C115.759 21.1031 115.113 17.0513 114.019 13.4773L120 6.10548H113.572L111.899 8.13137C109.165 2.98258 105.189 0 101.063 0C92.9954 0 86.4181 11.1708 86.4181 24.8742C86.4181 26.9279 86.5498 29.1231 86.8311 31.0643H75.5985L75.9467 28.8981L84.2311 28.9259L84.9924 24.2549L76.8255 24.2271L77.2058 21.9194H86.0862L86.8824 16.7138H72.5505L69.1863 36.917ZM92.2491 37.0573C94.0053 40.5745 96.7713 43.3889 99.5052 44.007C105.603 45.358 111.219 37.9862 112.014 27.6306C112.295 23.9732 111.898 20.006 110.954 16.7417L103.316 25.4644L108.235 36.7755H102.172L98.9576 29.7423H91.4373L96.5569 23.8328L93.3259 16.7417H99.4233L101.295 20.4838L108.668 11.6207C106.696 8.44098 103.962 6.58441 101.213 6.49976C95.0329 6.33045 89.9297 14.7158 89.815 25.2105C89.7979 27.2085 89.9966 29.2912 90.3284 31.1478H98.115L92.2491 37.0573Z" fill="#C0C4CC"/>
</svg>
