<svg width="120" height="50" viewBox="0 0 120 50" fill="none" xmlns="http://www.w3.org/2000/svg">
<path fill-rule="evenodd" clip-rule="evenodd" d="M102.379 0.000933682V0.443748C102.986 1.77124 102.986 3.98341 102.682 6.19559L101.164 18.1421L100.557 21.2389L91.7462 0.000933682H78.0754C78.9874 1.77123 78.6828 3.98341 78.6828 5.75278L73.2148 43.3616C73.2148 45.5747 73.2148 47.345 73.8222 48.6716C74.4296 49.5563 75.0377 50 75.9491 50H89.3159C88.7085 48.2297 88.4052 46.0166 88.7085 43.8054L90.5314 31.4161L90.8361 30.0876L99.0377 49.9991H113.317C112.709 48.2288 112.709 46.0157 113.012 43.8044L118.177 6.19465C118.481 3.98248 119.088 2.21218 120 0.442815V0H102.379V0.000933682ZM71.6953 0.000933682H59.5433C59.8473 1.32843 60.1507 2.65592 60.1507 4.42528L58.3279 16.8146L57.7205 21.2389L48.9108 0.000933682H2.12689L0 16.3718C1.21546 15.0443 2.7343 14.6015 4.25314 14.6015H10.6332L6.68341 43.8044C6.38003 46.0157 5.4686 48.2288 4.55717 49.9991H22.4812C21.8731 48.2288 21.5697 46.4594 21.8731 44.2463L25.8222 14.6015H30.9868C32.2023 14.6015 33.4171 15.0443 34.3285 15.929L30.3794 44.2463C30.0754 46.4594 29.468 48.6706 28.2525 49.9991H46.1765C45.5691 48.2288 45.5691 46.4594 45.8725 44.2463L47.0879 34.512L47.6953 30.0876L55.8976 49.9991H70.4799C69.5678 48.2288 69.5678 46.0157 69.8725 43.3616L74.733 7.52214C75.3411 3.5406 74.429 0.000933682 71.6953 0.000933682Z" fill="#C0C4CC"/>
</svg>
