<svg width="119" height="50" viewBox="0 0 119 50" fill="none" xmlns="http://www.w3.org/2000/svg">
<path fill-rule="evenodd" clip-rule="evenodd" d="M4.01892 44.286L5.76613 40.8576C5.94053 40.5714 6.28998 40.2862 6.46502 40.2862H4.36836C4.8922 40.2862 5.41733 40.5704 4.8922 41.429L3.66947 43.7146L2.4461 41.1418C2.27106 40.5704 2.6205 40.2862 3.14499 40.2862H0C0.174402 40.2862 0.349443 40.5704 0.698886 40.8576L2.4461 44.5722V46.2864C2.4461 46.8589 2.09666 47.4303 1.57217 47.4303H4.89157C4.19268 47.4303 4.01828 46.8589 4.01828 46.2864V44.286H4.01892ZM9.08616 40.2862L6.64006 46.5716C6.46566 47.143 6.29062 47.4292 5.94117 47.4292H7.86343C7.33894 47.4292 6.9895 46.8578 7.16454 46.2854L7.51335 45.4288H9.78505L10.1345 46.5716C10.3089 47.143 9.78505 47.4292 9.4356 47.4292H12.4062C12.2311 47.4292 11.8817 47.4292 11.7067 46.8578L9.26056 40.2862H9.08616ZM7.68839 45.1436L8.56231 42.2866L9.61128 45.1436H7.68839ZM15.7262 40.5714C16.0757 40.5714 16.6001 40.2873 17.124 41.1428C17.6485 41.7142 17.6485 42.0004 17.6485 42.2866H17.8229V40.2873H12.2318V42.2866H12.4068C12.4068 42.0015 12.4068 41.7142 12.93 41.1428C13.4539 40.2873 13.979 40.5714 14.3278 40.5714V46.2864C14.3278 46.8589 13.9784 47.4303 13.4539 47.4303H16.5995C16.075 47.4303 15.7256 46.8589 15.7256 46.2864V40.5714H15.7262ZM20.7935 41.429C20.7935 40.8576 20.9685 40.2862 21.6674 40.2862H18.3474C19.0462 40.2862 19.2213 40.8576 19.2213 41.429V46.2854C19.2213 46.8578 19.0462 47.4292 18.3474 47.4292H21.6674C20.9685 47.4292 20.7935 46.8578 20.7935 46.2854V41.429ZM26.5602 47.4292H28.4819C28.3074 47.4292 28.1324 47.4292 27.958 46.8578L26.2102 44.0008C26.7346 43.7157 27.0841 43.4284 27.4335 42.857C27.783 42.2856 27.6086 41.429 27.2585 40.8576C26.7346 40.2862 25.8607 40.2862 24.9874 40.2862H22.1919C22.5413 40.2862 22.8908 40.8576 22.8908 41.429V46.2854C22.8908 46.8578 22.5413 47.4292 22.1919 47.4292H25.1618C24.638 47.4292 24.2885 46.8578 24.2885 46.2854V43.9998H24.638L26.5602 47.4292ZM24.2885 40.8576C24.2885 40.5714 24.638 40.5714 24.8124 40.5714C25.5113 40.5714 25.8607 40.8576 26.0358 41.1428C26.0358 41.429 26.2102 42.2866 26.0358 42.858C25.6863 44.0019 24.8124 43.7157 24.2885 43.7157V40.8576ZM31.2774 41.429C31.2774 40.8576 31.4524 40.2862 32.1513 40.2862H28.8313C29.3551 40.2862 29.7052 40.8576 29.7052 41.429V46.2854C29.7052 46.8578 29.3558 47.4292 28.8313 47.4292H32.1513C31.4524 47.4292 31.2774 46.8578 31.2774 46.2854V41.429ZM40.1892 41.429C40.1892 40.8576 40.3636 40.2862 40.8887 40.2862H38.6163L36.6947 45.1426L34.9469 40.2862H32.5008C33.1997 40.2862 33.3747 40.5704 33.3747 41.429V46.2854C33.3747 46.8578 33.0246 47.4292 32.6758 47.4292H34.423C34.0736 47.4292 33.7241 46.8578 33.7241 46.2854V41.1418L35.9952 47.4292H36.3453L38.6163 41.1418V46.2854C38.6163 46.8578 38.4426 47.4292 37.9175 47.4292H40.888C40.3636 47.4292 40.1885 46.8578 40.1885 46.2854V41.429H40.1892ZM50.4987 44.0008C50.4987 42.5729 49.9742 41.429 49.1003 40.8576C48.5764 40.2862 47.8775 40 47.1787 40C46.6542 40 45.9553 40.2862 45.2564 40.8576C44.3825 41.429 44.033 42.5729 44.033 44.0008C44.033 45.1436 44.3825 46.5716 45.2564 47.143C45.9553 47.4292 46.6542 47.7144 47.1787 47.7144C47.8775 47.7144 48.5764 47.4303 49.1003 47.143C49.9742 46.5716 50.4987 45.1436 50.4987 44.0008ZM47.1787 47.4292H46.6542C46.2822 47.1061 45.9778 46.6085 45.7802 46.0002C45.6065 45.4288 45.6065 44.8574 45.6065 44.0008C45.6065 43.1432 45.6065 42.2856 45.7802 42.0004C45.9553 41.1428 46.3047 40.8576 46.6542 40.5714C46.8286 40.2873 47.0036 40.2873 47.1787 40.2873C47.3531 40.2873 47.5281 40.2873 47.8775 40.5714C48.227 40.8576 48.4014 41.1428 48.5764 42.0004C48.7508 42.2856 48.9259 43.1432 48.9259 44.0008C48.9259 44.8574 48.7508 45.4288 48.5764 46.0002C48.402 46.5716 48.2276 47.143 47.8775 47.4292H47.1787ZM55.5653 47.4292H57.4875C57.3131 47.4292 57.3131 47.4292 56.9637 46.8578L55.2159 44.0008C55.7403 43.7157 56.2648 43.4284 56.4392 42.857C56.7887 42.2856 56.6143 41.429 56.2648 40.8576C55.7403 40.2862 54.867 40.2862 53.9931 40.2862H51.1969C51.547 40.2862 51.8965 40.8576 51.8965 41.429V46.2854C51.8965 46.8578 51.547 47.4292 51.1969 47.4292H54.1675C53.6437 47.4292 53.4686 46.8578 53.4686 46.2854V43.9998H53.6437L55.5653 47.4292ZM53.4686 40.8576C53.4686 40.5714 53.6437 40.5714 53.8181 40.5714C54.517 40.5714 54.8664 40.8576 55.0414 41.1428C55.2158 41.429 55.2158 42.2866 55.0414 42.858C54.692 44.0019 53.8181 43.7157 53.4686 43.7157V40.8576ZM61.157 40.5714C61.5065 40.5714 62.0303 40.2873 62.5548 41.1428C63.0786 41.7142 63.0786 42.0004 63.0786 42.2866H63.253V40.2873H57.6626V42.2866H57.837C57.837 42.0015 57.837 41.7142 58.3615 41.1428C58.8853 40.2873 59.4098 40.5714 59.7592 40.5714V46.2864C59.7592 46.8589 59.4098 47.4303 58.8853 47.4303H62.0309C61.5071 47.4303 61.1577 46.8589 61.1577 46.2864V40.5714H61.157ZM66.2243 40.2862L63.7775 46.5716C63.6031 47.143 63.4294 47.4292 63.0786 47.4292H65.0015C64.4777 47.4292 64.1282 46.8578 64.3027 46.2854L64.6521 45.4288H66.9232L67.2726 46.5716C67.447 47.143 66.9231 47.4292 66.5737 47.4292H69.5443C69.3699 47.4292 69.0204 47.4292 68.8454 46.8578L66.3987 40.2862H66.2243ZM64.8271 45.1436L65.7004 42.2866L66.7487 45.1436H64.8271ZM72.3392 44.286L72.5149 44.0008L74.4365 46.8578C74.6109 47.142 74.2621 47.4292 73.7376 47.4292H76.8832C76.7076 47.4292 76.5338 47.143 76.1844 46.8578L73.5626 42.857L74.7853 41.429C75.6586 40.2862 76.1837 40.2862 76.7069 40.2862H73.912C74.4359 40.2862 74.9603 40.8576 74.4359 41.1418L72.3386 43.7146V41.429C72.3386 40.8576 72.5142 40.2862 73.0375 40.2862H70.0681C70.592 40.2862 70.767 40.8576 70.767 41.429V46.2854C70.767 46.8578 70.5926 47.4292 70.0681 47.4292H73.0375C72.5149 47.4292 72.3386 46.8578 72.3386 46.2854V44.286H72.3392ZM82.8238 45.1436C82.2999 46.5716 81.7754 47.143 80.377 47.143C80.0276 47.143 79.5037 46.8589 79.5037 46.5716V41.429C79.5037 40.8576 79.8532 40.2862 80.377 40.2862H77.2327C77.7565 40.2862 78.106 40.8576 78.106 41.429V46.2854C78.106 46.8578 77.7565 47.4292 77.2327 47.4292H82.6494L82.9988 45.1436H82.8238ZM85.9694 41.429C85.9694 40.8576 86.1438 40.2862 86.8427 40.2862H83.5227C84.2228 40.2862 84.3959 40.8576 84.3959 41.429V46.2854C84.3959 46.8578 84.2228 47.4292 83.5227 47.4292H86.8427C86.1438 47.4292 85.9694 46.8578 85.9694 46.2854V41.429ZM92.9583 40C92.9583 40.2862 92.9583 40.5714 92.4344 40.5714C92.085 40.5714 91.3861 40 90.6879 40C89.9896 40 89.2901 40.2862 88.7649 40.8576C87.8917 41.429 87.3672 42.5729 87.3672 44.0008C87.3672 45.1436 87.891 46.5716 88.7649 47.143C89.2901 47.4292 89.989 47.7144 90.6879 47.7144H91.5611C91.7355 47.7144 93.1333 47.4303 93.3077 47.143V45.4288C93.3077 44.8574 93.6584 44.5722 94.0079 44.5722V44.287H91.0373V44.5722C91.5611 44.5722 91.7362 44.8574 91.7362 45.4288V46.8578C91.7362 46.8578 91.7362 47.142 91.3867 47.4292H90.164C89.6402 47.143 89.4651 46.5716 89.2907 46.0002C89.115 45.4288 88.94 44.8574 88.94 44.0008C88.94 43.1432 89.1144 42.2856 89.2907 42.0004C89.4651 41.1428 89.6402 40.8576 90.164 40.5714C90.3384 40.2873 90.5134 40.2873 90.6879 40.2873C90.8623 40.2873 91.2117 40.5714 91.7362 40.8587C92.7845 41.4301 92.9589 42.5739 92.9589 42.5739H93.3083V40.001H92.9583V40ZM89.6389 38.0006C89.6389 39.1434 90.3378 39.4286 90.8616 39.4286C91.3854 39.4286 92.0843 39.1434 92.0843 38.0006H91.9099C91.7355 38.2858 91.211 38.572 90.8616 38.572C90.3378 38.572 89.8133 38.2868 89.8133 38.0006H89.6389ZM96.9772 41.429C96.9772 40.8576 97.1529 40.2862 97.8517 40.2862H94.5317C95.0556 40.2862 95.405 40.8576 95.405 41.429V46.2854C95.405 46.8578 95.0556 47.4292 94.5317 47.4292H97.8517C97.1529 47.4292 96.9772 46.8578 96.9772 46.2854V41.429ZM103.092 40.2862L100.821 46.5716C100.472 47.143 100.297 47.4292 100.122 47.4292H101.87C101.345 47.4292 101.17 46.8578 101.345 46.2854L101.521 45.4288H103.792L104.141 46.5716C104.491 47.143 103.792 47.4292 103.442 47.4292H106.412C106.238 47.4292 105.889 47.4292 105.713 46.8578L103.442 40.2862H103.092ZM101.694 45.1436L102.569 42.2866L103.617 45.1436H101.694ZM107.112 46.8578C107.112 47.4292 107.462 47.7134 107.811 47.7134C108.335 47.7134 108.684 47.4292 108.684 46.8578C108.684 46.2854 108.335 46.0002 107.811 46.0002C107.462 46.0002 107.112 46.2854 107.112 46.8578ZM113.577 42.5729V40H113.227C113.227 40.2862 113.227 40.5714 112.703 40.2862C112.18 40.2862 111.131 39.7148 110.258 40.5704C109.558 41.1418 108.684 43.1422 110.957 44.5712C111.306 44.5712 111.656 44.8564 112.005 45.1426C113.053 45.715 112.704 46.8578 112.355 47.142C112.18 47.4282 111.132 47.7134 110.608 47.142C110.259 46.5706 109.909 46.2854 109.909 45.9992L109.558 45.1426H109.384V47.7134H109.558C109.733 47.4292 109.558 47.4292 110.082 47.4292C111.306 47.7134 111.306 48.0006 112.355 47.7134C113.752 47.142 114.277 45.1426 113.053 43.7146C112.704 43.4284 112.18 43.1422 111.656 42.857C110.957 42.5729 110.607 42.2856 110.432 41.7131C110.432 41.1418 110.607 40.5704 111.481 40.5704C112.704 40.5704 113.053 41.9994 113.403 42.5718H113.577V42.5729ZM111.306 47.7144L111.131 48.572C111.481 48.572 111.83 48.8572 111.655 49.1434C111.655 49.4286 111.131 49.7148 110.431 49.1434L110.258 49.4286C110.431 49.7138 110.957 50 111.481 50C111.655 50 112.005 50 112.354 49.4286C112.528 49.4286 112.703 48.8572 112.354 48.572C112.005 48.2858 111.83 48.2858 111.481 48.2858L111.655 47.7144H111.306ZM114.626 46.8578C114.626 47.4292 114.976 47.7134 115.5 47.7134C115.849 47.7134 116.198 47.4292 116.198 46.8578C116.198 46.2854 115.849 46.0002 115.5 46.0002C114.976 46.0002 114.626 46.2854 114.626 46.8578ZM8.91176 29.4286C8.91176 28.8572 9.2612 28.5731 9.96009 28.5731V28.2868H7.16518L4.89284 33.4294L2.79618 28.2868H0.175041V28.5731C0.874566 28.5731 1.04897 28.5731 1.04897 29.4286V34.5733C1.04897 35.1447 0.874566 35.4288 0.175041 35.4288V35.714H2.44674V35.4288C1.74785 35.4288 1.57281 35.1447 1.57281 34.5733V29.1445L4.19396 35.715H4.5434L7.16454 29.1445V34.5733C7.16454 35.1447 6.9895 35.4288 6.29062 35.4288V35.714H9.96009V35.4288C9.2612 35.4288 8.91176 35.1447 8.91176 34.5733V29.4286ZM13.1051 32.0004C14.3284 32.2856 14.5035 32.2856 14.8529 33.7157H15.0273V30.001H14.8529C14.5035 31.429 14.3284 31.7152 13.1051 31.7152V29.1445C13.1051 28.5731 13.1051 28.5731 13.6296 28.5731H14.5035C16.2507 28.5731 16.2507 30.001 16.4251 30.5724H16.6001V28.2868H10.4846V28.5731C11.0084 28.5731 11.3579 28.8572 11.3579 29.4286V34.5733C11.3579 35.1447 11.0084 35.4288 10.4846 35.4288V35.714H16.7752L17.124 33.4284H16.9496C16.0757 34.8574 15.2024 35.4288 13.6296 35.4288C13.1051 35.1447 13.1051 35.1447 13.1051 34.5733V32.0004ZM24.2885 35.714V29.4276C24.2885 28.8562 24.638 28.572 25.1618 28.572V28.2858H22.8908V28.572C23.5896 28.572 23.7641 28.8562 23.7641 29.4276V32.8559L20.0946 28.2848H17.6485V28.571C17.9979 28.571 18.173 28.571 18.3474 28.8551L18.6968 29.4265V34.5712C18.6968 35.1426 18.3474 35.4267 17.8229 35.4267V35.7119H19.9202V35.4267C19.3957 35.4267 19.0462 35.1426 19.0462 34.5712V29.999L23.9391 35.7129H24.2885V35.714ZM28.3075 32.5718L28.6569 32.2866L30.7536 34.8585C30.928 35.1447 30.7536 35.4299 30.0547 35.4299V35.715H33.7241V35.4299C33.5491 35.4299 33.3747 35.1457 32.8502 34.8585L29.8796 30.8587L31.2774 29.4296C32.3264 28.5741 32.8502 28.5741 33.3747 28.5741V28.2879H30.2291V28.5741C30.928 28.5741 31.2774 28.8582 30.928 29.4296L28.3075 31.7152V29.4296C28.3075 28.8582 28.6569 28.5741 29.1807 28.5741V28.2879H25.6863V28.5741C26.3852 28.5741 26.5602 28.8582 26.5602 29.4296V34.5743C26.5602 35.1457 26.3852 35.4299 25.6863 35.4299V35.715H29.1807V35.4299C28.6569 35.4299 28.3075 35.1457 28.3075 34.5743V32.5718ZM40.7136 29.4286C40.7136 28.8572 41.0624 28.5731 41.5869 28.5731V28.2868H39.4903V28.5731C40.0141 28.5731 40.3636 28.8572 40.3636 29.4286V33.4284C40.3636 35.4288 38.4419 35.4288 37.7431 35.1447C36.8691 35.1447 36.8691 33.9998 36.8691 33.4284V29.4286C36.8691 28.8572 37.0435 28.5731 37.7431 28.5731V28.2868H34.0736V28.5731C34.7725 28.5731 35.1219 28.8572 35.1219 29.4286V33.7157C35.1219 34.5733 35.8208 35.715 37.7431 35.715C39.4903 36.0002 40.7136 35.1447 40.7136 33.4294V29.4286ZM48.4014 33.1432C47.8775 34.5722 47.3531 35.4288 45.6058 35.4288C45.2564 35.4288 44.7319 35.1447 44.7319 34.5733V29.4286C44.7319 28.8572 45.0814 28.5731 45.6058 28.5731V28.2868H42.1114V28.5731C42.6353 28.5731 42.9847 28.8572 42.9847 29.4286V34.5733C42.9847 35.1447 42.6353 35.4288 42.1114 35.4288V35.714H48.4014L48.7508 33.1432H48.4014ZM54.1675 32.5718L54.517 32.2866L56.6143 34.8585C56.7887 35.1447 56.6143 35.4299 55.9154 35.4299V35.715H59.5842V35.4299C59.2348 35.4299 59.2348 35.1457 58.7109 34.8585L55.7403 30.8587L57.1381 29.4296C58.1864 28.5741 58.7109 28.5741 59.2348 28.5741V28.2879H56.0898V28.5741C56.7887 28.5741 57.1381 28.8582 56.7887 29.4296L54.1675 31.7152V29.4296C54.1675 28.8582 54.517 28.5741 55.0414 28.5741V28.2879H51.547V28.5741C52.0709 28.5741 52.4203 28.8582 52.4203 29.4296V34.5743C52.4203 35.1457 52.0709 35.4299 51.547 35.4299V35.715H55.0414V35.4299C54.517 35.4299 54.1675 35.1457 54.1675 34.5743V32.5718ZM62.7292 29.4286C62.7292 28.8572 63.0786 28.5731 63.7775 28.5731V28.2868H59.9337V28.5731C60.6332 28.5731 60.9813 28.8572 60.9813 29.4286V34.5733C60.9813 35.1447 60.6332 35.4288 59.9337 35.4288V35.714H63.7775V35.4288C63.0786 35.4288 62.7292 35.1447 62.7292 34.5733V29.4286ZM68.846 32.2856L70.7677 29.1434C70.9421 28.8572 71.4666 28.572 71.641 28.572V28.2858H69.1955V28.572C69.8944 28.572 70.4182 28.8562 69.8944 29.7148L68.4966 32.0004L66.9232 29.1445C66.7488 28.5731 67.2726 28.5731 67.7977 28.5731V28.2868H64.3027V28.5731C64.4771 28.5731 64.6521 28.5731 65.0015 29.1445L67.0976 32.858V34.5743C67.0976 35.1457 66.7481 35.4299 66.0492 35.4299V35.715H69.7187V35.4299C69.0198 35.4299 68.8454 35.1457 68.8454 34.5743V32.2856H68.846ZM81.0772 29.4286C81.0772 28.8572 81.4266 28.5731 81.9505 28.5731V28.2868H79.1543L77.057 33.4294L74.961 28.2868H72.1661V28.5731C72.865 28.5731 73.2144 28.5731 73.2144 29.4286V34.5733C73.2144 35.1447 72.865 35.4288 72.3398 35.4288V35.714H74.4371V35.4288C73.9133 35.4288 73.5639 35.1447 73.5639 34.5733V29.1445L76.1856 35.715H76.5351L79.33 29.1445V34.5733C79.33 35.1447 78.9805 35.4288 78.4567 35.4288V35.714H81.9518V35.4288C81.4279 35.4288 81.0785 35.1447 81.0785 34.5733V29.4286H81.0772ZM85.0961 32.0004C86.3188 32.2856 86.6683 32.2856 87.0177 33.7157H87.1921V30.001H87.0177C86.6683 31.429 86.3188 31.7152 85.0961 31.7152V29.1445C85.0961 28.5731 85.2705 28.5731 85.62 28.5731H86.4932C88.2411 28.5731 88.4149 30.001 88.4149 30.5724H88.5905V28.2868H82.4743V28.5731C82.9982 28.5731 83.3476 28.8572 83.3476 29.4286V34.5733C83.3476 35.1447 82.9982 35.4288 82.4743 35.4288V35.714H88.7643L89.2894 33.4284H88.9387C88.2411 34.8574 87.3665 35.4288 85.7944 35.4288C85.2705 35.1447 85.0955 35.1447 85.0955 34.5733V32.0004H85.0961ZM94.0072 28.572C94.3567 28.572 95.0556 28.572 95.5794 29.1434C96.1033 29.7148 96.1033 30.2862 96.2783 30.5714H96.4527V28.2858H89.8133V30.5714H90.1627C90.1627 30.2862 90.1627 29.7148 90.6866 29.1434C91.3854 28.572 92.0843 28.572 92.2587 28.572V34.5722C92.2587 35.1436 91.9093 35.4278 91.3855 35.4278V35.7129H94.8805V35.4278C94.3567 35.4278 94.0072 35.1436 94.0072 34.5722V28.572ZM103.443 33.1432C102.919 34.5722 102.395 35.4288 100.647 35.4288C100.297 35.4288 99.7734 35.1447 99.7734 34.5733V29.4286C99.7734 28.8572 100.123 28.5731 100.647 28.5731V28.2868H97.1529V28.5731C97.6754 28.5731 98.0262 28.8572 98.0262 29.4286V34.5733C98.0262 35.1447 97.6754 35.4288 97.1529 35.4288V35.714H103.443L103.792 33.1432H103.443ZM107.112 32.0004C108.335 32.2856 108.51 32.2856 108.859 33.7157H109.033V30.001H108.859C108.509 31.429 108.335 31.7152 107.112 31.7152V29.1445C107.112 28.5731 107.112 28.5731 107.462 28.5731H108.51C110.082 28.5731 110.258 30.001 110.432 30.5724H110.607V28.2868H104.316V28.5731C105.015 28.5731 105.364 28.8572 105.364 29.4286V34.5733C105.364 35.1447 105.015 35.4288 104.316 35.4288V35.714H110.607L111.131 33.4284H110.781C110.082 34.8574 109.208 35.4288 107.636 35.4288C107.112 35.1447 107.112 35.1447 107.112 34.5733V32.0004ZM116.897 35.714H118.994V35.4288C118.994 35.4288 118.818 35.4288 118.469 35.1447L116.373 32.0004C117.072 31.7152 117.597 31.7152 117.946 31.1438C118.469 30.2873 118.119 29.4286 117.771 29.1445C117.072 28.2868 116.024 28.2868 115.15 28.2868H111.83V28.5731C112.354 28.5731 112.703 28.8572 112.703 29.4286V34.5733C112.703 35.1447 112.354 35.4288 111.83 35.4288V35.714H115.325V35.4288C114.8 35.4288 114.451 35.1447 114.451 34.5733V32.2866H114.626L116.897 35.714ZM114.45 29.1434C114.45 28.8572 114.626 28.572 114.799 28.572C115.674 28.572 116.023 28.8562 116.198 29.1434C116.372 29.4276 116.547 30.5714 116.372 31.1428C116.023 31.9994 114.974 31.7142 114.449 31.7142V29.1434H114.45ZM47.3531 0L45.6058 10C45.4308 11.1428 45.2564 12.0004 45.2564 13.1422C45.2564 12.0004 45.0814 11.1428 44.907 10L42.9847 0H37.9175L43.1597 22.0015H47.3531L52.5953 0H47.3531ZM53.6437 22.0004H58.3615V14.8574H58.5359L60.6332 22.0004H66.3987L63.4294 14.8574C63.0786 14.285 62.9042 13.7125 62.5548 13.4284C64.4777 12.2846 65.1766 10.8566 65.1766 7.71441C65.1766 1.99938 62.5548 0 59.5849 0H53.6443V22.0004H53.6437ZM58.3615 6.00021H58.8853C59.5842 6.00021 60.4588 6.28539 60.4588 7.71441C60.4588 9.4286 59.5842 9.71378 58.7109 9.71378H58.3615V6.00021Z" fill="#C0C4CC"/>
</svg>
