<svg width="120" height="50" viewBox="0 0 120 50" fill="none" xmlns="http://www.w3.org/2000/svg">
<path fill-rule="evenodd" clip-rule="evenodd" d="M32.9199 32.7603H41.7585V21.7777H48.4222V14.7164H41.7585V10.7943H52.3367V2.05948H32.9199V32.7603ZM55.6349 32.7603H74.8086V25.3926H64.8904V2.05948H55.6349V32.7603ZM77.9714 32.7603H87.2283V2.05948H77.9714V32.7603ZM91.2897 32.7603H100.547V21.2618L108.37 32.7603H119.284L109.471 20.4806C112.588 19.4717 116.414 17.0594 116.414 11.27C116.414 9.86659 116.035 2.06026 104.985 2.06026H91.2897V32.7603ZM100.547 15.8749V8.81361H102.813C106.119 8.81361 107.157 10.6116 107.157 12.3222C107.157 14.121 106.119 15.8749 102.813 15.8749H100.547ZM42.203 36.0909C41.6194 35.6876 40.0543 34.7 37.7606 34.7C34.34 34.7 32.6293 36.6752 32.6293 38.9529C32.6293 41.7558 34.6113 42.7426 36.1128 43.1663C37.3854 43.5294 38.9075 43.6491 38.9075 45.0399C38.9075 45.8873 38.2192 46.2307 37.4681 46.2307C36.2584 46.2307 34.9859 45.4235 33.839 44.3555L31.8994 47.3577C34.0058 49.0116 35.4868 49.6188 37.3642 49.6188C40.7849 49.6188 42.8496 47.7822 42.8496 44.9793C42.8496 43.6089 42.5994 41.614 39.6586 40.6264C38.2609 40.1421 36.5714 40.1838 36.5714 39.0143C36.5714 38.5095 36.8639 37.8038 38.0941 37.8038C39.1371 37.8038 40.0543 38.4496 40.7425 39.0545L42.203 36.0909ZM48.3349 49.2132H52.4227V43.731L57.4706 35.1033H53.007L50.5876 40.0625L48.1053 35.1033H43.2845L48.3349 43.731V49.2132ZM67.1476 36.0909C66.5639 35.6876 64.9988 34.7 62.7052 34.7C59.2845 34.7 57.5739 36.6752 57.5739 38.9529C57.5739 41.7558 59.5558 42.7426 61.0574 43.1663C62.3286 43.5294 63.852 43.6491 63.852 45.0399C63.852 45.8873 63.1631 46.2307 62.4127 46.2307C61.2023 46.2307 59.9304 45.4235 58.7836 44.3555L56.8439 47.3577C58.9503 49.0116 60.4307 49.6188 62.3088 49.6188C65.7288 49.6188 67.7935 47.7822 67.7935 44.9793C67.7935 43.6089 67.544 41.614 64.6025 40.6264C63.2055 40.1421 61.516 40.1838 61.516 39.0143C61.516 38.5095 61.8078 37.8038 63.0393 37.8038C64.0816 37.8038 64.9988 38.4496 65.6877 39.0545L67.1476 36.0909ZM71.7369 49.2132H75.8246V38.4906H79.0368V35.1033H68.5247V38.4906H71.7369V49.2132ZM79.8706 49.2132H88.6317V45.8275H83.9584V43.5696H88.193V40.4658H83.9584V38.4906H88.6317V35.1033H79.8706V49.2132ZM90.0069 49.2132H93.9278L95.0131 41.0297L97.4749 49.2132H100.101L102.563 41.0297L103.648 49.2132H107.569L105.441 35.1033H101.353L98.7891 43.7113L96.2235 35.1033H92.1345L90.0069 49.2132ZM119.353 36.0909C118.769 35.6876 117.204 34.7 114.91 34.7C111.489 34.7 109.779 36.6752 109.779 38.9529C109.779 41.7558 111.761 42.7426 113.263 43.1663C114.535 43.5294 116.058 43.6491 116.058 45.0399C116.058 45.8873 115.369 46.2307 114.619 46.2307C113.408 46.2307 112.137 45.4235 110.989 44.3555L109.05 47.3577C111.156 49.0116 112.637 49.6188 114.515 49.6188C117.935 49.6188 120 47.7822 120 44.9793C120 43.6089 119.749 41.614 116.809 40.6264C115.411 40.1421 113.722 40.1838 113.722 39.0143C113.722 38.5095 114.014 37.8038 115.245 37.8038C116.288 37.8038 117.205 38.4496 117.894 39.0545L119.353 36.0909ZM0 16.8499L13.7237 0L27.4467 16.8499L20.8087 24.9996L13.7237 16.3002L6.63798 24.9996L0 16.8499ZM0 33.1501L13.7237 50L27.4467 33.1501L20.8087 24.9996L13.7237 33.699L6.63798 24.9996L0 33.1501Z" fill="#C0C4CC"/>
</svg>
