<svg width="22" height="22" viewBox="0 0 22 22" fill="none" xmlns="http://www.w3.org/2000/svg">
<g clip-path="url(#clip0_1524_665)">
<path d="M12.7241 0.555054C14.7315 0.954376 16.5754 1.93999 18.0226 3.38727C19.9632 5.32794 21.0534 7.96001 21.0534 10.7045C21.0534 13.4489 19.9632 16.081 18.0226 18.0217C16.5754 19.469 14.7315 20.4546 12.7241 20.8539C10.7167 21.2532 8.63602 21.0483 6.7451 20.2651C4.85417 19.4819 3.23797 18.1555 2.10087 16.4537C0.963764 14.7519 0.356838 12.7512 0.356838 10.7045C0.356838 8.65776 0.963764 6.65701 2.10087 4.95524C3.23797 3.25346 4.85417 1.92709 6.7451 1.14387C8.63602 0.36064 10.7167 0.155732 12.7241 0.555054Z" stroke="#4B4D5F" stroke-width="0.713675"/>
<path d="M10.0334 14.1596L6.80424 10.9304L6.80428 10.9304L6.79981 10.9261C6.77 10.8973 6.74621 10.8628 6.72984 10.8247C6.71348 10.7866 6.70487 10.7457 6.70451 10.7042C6.70415 10.6628 6.71205 10.6216 6.72774 10.5833C6.74344 10.5449 6.76663 10.51 6.79594 10.4807C6.82526 10.4514 6.86012 10.4282 6.89849 10.4125C6.93687 10.3968 6.97798 10.3889 7.01944 10.3893C7.0609 10.3896 7.10187 10.3982 7.13996 10.4146C7.17806 10.431 7.21251 10.4548 7.24131 10.4846L7.24127 10.4846L7.24566 10.489L9.78077 13.0241L10.0331 13.2764L10.2854 13.0241L15.1501 8.16045C15.2088 8.10595 15.2863 8.07606 15.3664 8.07708C15.4479 8.07811 15.5257 8.1109 15.5832 8.16846C15.6408 8.22603 15.6737 8.30381 15.6747 8.38523C15.6758 8.4654 15.6459 8.54285 15.5915 8.60157L10.0334 14.1596Z" stroke="#4B4D5F" stroke-width="0.713675"/>
</g>
<defs>
<clipPath id="clip0_1524_665">
<rect width="21.4103" height="21.4103" fill="white"/>
</clipPath>
</defs>
</svg>
