<svg width="22" height="22" viewBox="0 0 22 22" fill="none" xmlns="http://www.w3.org/2000/svg">
<g clip-path="url(#clip0_1524_661)">
<path d="M18.2749 3.13495C16.7778 1.63777 14.8703 0.618165 12.7937 0.205074C10.7171 -0.208018 8.56467 0.00395604 6.60854 0.81419C4.65242 1.62442 2.98048 2.99653 1.80417 4.75699C0.627855 6.51744 0 8.58719 0 10.7045C0 12.8218 0.627855 14.8915 1.80417 16.652C2.98048 18.4124 4.65242 19.7845 6.60854 20.5948C8.56467 21.405 10.7171 21.617 12.7937 21.2039C14.8703 20.7908 16.7778 19.7712 18.2749 18.274C20.2825 16.2664 21.4103 13.5436 21.4103 10.7045C21.4103 7.86537 20.2825 5.14254 18.2749 3.13495ZM15.8475 8.85015L10.0333 14.6644L6.55182 11.1829C6.48792 11.1211 6.43694 11.0473 6.40188 10.9657C6.36681 10.8841 6.34836 10.7963 6.34758 10.7074C6.34681 10.6186 6.36374 10.5305 6.39738 10.4483C6.43102 10.366 6.4807 10.2913 6.54353 10.2285C6.60635 10.1657 6.68105 10.116 6.76328 10.0824C6.8455 10.0487 6.9336 10.0318 7.02244 10.0326C7.11128 10.0333 7.19908 10.0518 7.28071 10.0869C7.36234 10.1219 7.43616 10.1729 7.49788 10.2368L10.033 12.7719L14.9015 7.90442C15.028 7.78422 15.1964 7.71818 15.3709 7.72038C15.5453 7.72258 15.712 7.79285 15.8354 7.91621C15.9588 8.03957 16.0292 8.20625 16.0314 8.38071C16.0337 8.55518 15.9677 8.72363 15.8475 8.85015Z" fill="#FF765A"/>
</g>
<defs>
<clipPath id="clip0_1524_661">
<rect width="21.4103" height="21.4103" fill="white"/>
</clipPath>
</defs>
</svg>
