<svg width="44" height="44" viewBox="0 0 44 44" fill="none" xmlns="http://www.w3.org/2000/svg">
<circle cx="22" cy="22" r="21.5" stroke="#37C38F"/>
<path d="M23.4248 22L32.0875 12L18.2773 22H20.7883L12 32L25.8101 22H23.4248ZM18.0262 23.25H14.3854L17.5241 21L26.9401 14.125L22.0437 12L13.2555 15.75V19.5C13.2555 22 13.8832 24.375 15.1387 26.5L18.0262 23.25ZM26.0612 20.75H29.5765L26.5634 23L17.6496 29.5C18.9051 30.625 20.4116 31.5 22.0437 32C27.3167 30.125 30.9576 25.125 30.832 19.5V15.75L30.5809 15.625L26.0612 20.75Z" fill="#37C38F"/>
</svg>
