<svg width="16" height="16" viewBox="0 0 16 16" fill="none" xmlns="http://www.w3.org/2000/svg">
<path d="M13.8465 13.0205C13.8465 13.2605 13.7932 13.5071 13.6799 13.7471C13.5665 13.9871 13.4199 14.2138 13.2265 14.4271C12.8999 14.7871 12.5399 15.0471 12.1332 15.2138C11.7332 15.3805 11.2999 15.4671 10.8332 15.4671C10.1532 15.4671 9.42654 15.3071 8.65987 14.9805C7.8932 14.6538 7.12654 14.2138 6.36654 13.6605C5.59987 13.1005 4.8732 12.4805 4.17987 11.7938C3.4932 11.1005 2.8732 10.3738 2.31987 9.61379C1.7732 8.85379 1.3332 8.09379 1.0132 7.34046C0.693203 6.58046 0.533203 5.85379 0.533203 5.16046C0.533203 4.70712 0.613203 4.27379 0.773203 3.87379C0.933203 3.46712 1.18654 3.09379 1.53987 2.76046C1.96654 2.34046 2.4332 2.13379 2.92654 2.13379C3.1132 2.13379 3.29987 2.17379 3.46654 2.25379C3.63987 2.33379 3.7932 2.45379 3.9132 2.62712L5.45987 4.80712C5.57987 4.97379 5.66654 5.12712 5.72654 5.27379C5.78654 5.41379 5.81987 5.55379 5.81987 5.68046C5.81987 5.84046 5.7732 6.00046 5.67987 6.15379C5.5932 6.30712 5.46654 6.46712 5.30654 6.62712L4.79987 7.15379C4.72654 7.22712 4.6932 7.31379 4.6932 7.42046C4.6932 7.47379 4.69987 7.52046 4.7132 7.57379C4.7332 7.62712 4.7532 7.66712 4.76654 7.70712C4.88654 7.92712 5.0932 8.21379 5.38654 8.56046C5.68654 8.90712 6.00654 9.26046 6.3532 9.61379C6.7132 9.96712 7.05987 10.2938 7.4132 10.5938C7.75987 10.8871 8.04654 11.0871 8.2732 11.2071C8.30654 11.2205 8.34654 11.2405 8.3932 11.2605C8.44654 11.2805 8.49987 11.2871 8.55987 11.2871C8.6732 11.2871 8.75987 11.2471 8.8332 11.1738L9.33987 10.6738C9.50654 10.5071 9.66654 10.3805 9.81987 10.3005C9.9732 10.2071 10.1265 10.1605 10.2932 10.1605C10.4199 10.1605 10.5532 10.1871 10.6999 10.2471C10.8465 10.3071 10.9999 10.3938 11.1665 10.5071L13.3732 12.0738C13.5465 12.1938 13.6665 12.3338 13.7399 12.5005C13.8065 12.6671 13.8465 12.8338 13.8465 13.0205Z" fill="white"/>
<path d="M11.5335 6.80013C11.5335 6.40013 11.2202 5.7868 10.7535 5.2868C10.3269 4.8268 9.7602 4.4668 9.2002 4.4668" stroke="white" stroke-width="1.2" stroke-linecap="round" stroke-linejoin="round"/>
<path d="M13.8669 6.80045C13.8669 4.22046 11.7802 2.13379 9.2002 2.13379" stroke="white" stroke-width="1.2" stroke-linecap="round" stroke-linejoin="round"/>
</svg>
