<svg width="37" height="37" viewBox="0 0 37 37" fill="none" xmlns="http://www.w3.org/2000/svg">
<circle cx="18.7223" cy="18.624" r="17.8419" stroke="#4B4D5F" stroke-width="0.713675"/>
<g clip-path="url(#clip0_1524_698)">
<path d="M22.8257 26.7867V25.3928C21.7106 25.3928 20.0538 23.8188 19.2038 23.1581C18.9595 22.981 18.6652 22.886 18.3634 22.8868C18.0616 22.8876 17.7679 22.9841 17.5245 23.1625C16.6811 23.8294 15.0199 25.3928 13.9048 25.3928V26.7867H22.8257ZM18.3653 20.3747C18.4829 20.3747 18.946 19.3003 19.6253 18.852L21.1659 17.7701C21.3797 17.6179 21.5775 17.4444 21.7563 17.2524C19.1079 18.3201 17.2705 16.4161 15.043 17.3082L15.0316 17.3107C15.1949 17.4799 15.3732 17.6339 15.5644 17.7709C15.5644 17.7709 16.7191 18.5836 17.1049 18.8529C17.8136 19.3469 18.1517 20.3747 18.3653 20.3747Z" fill="#4B4D5F"/>
<path d="M16.3514 16.5036C16.9817 16.5247 17.6079 16.6138 18.2192 16.7693C18.8122 16.9203 19.4197 17.0073 20.0312 17.0288C20.5512 17.0306 21.0666 16.9305 21.5481 16.7341L22.3705 16.4024C22.6691 15.8399 22.8254 15.2129 22.8257 14.5761V11.175H13.9048V14.5761C13.9058 15.3842 14.1579 16.172 14.6263 16.8306L14.8772 16.7729C15.3472 16.5911 15.8474 16.4998 16.3514 16.5036ZM21.1662 20.3903L19.6886 19.3683C19.6886 19.3683 19.5133 19.5183 19.4795 19.5601C19.2592 19.8504 19.0722 20.1645 18.922 20.4965C18.889 20.6197 18.8168 20.7288 18.7164 20.8074C18.616 20.886 18.4928 20.9298 18.3653 20.9323C18.2415 20.9267 18.1222 20.8847 18.0223 20.8114C17.9224 20.7381 17.8465 20.6369 17.8041 20.5205C17.6386 20.1902 17.4245 19.8866 17.169 19.6198C17.1052 19.5587 16.9658 19.4048 16.9658 19.4048L15.5646 20.3903C15.0519 20.7504 14.6334 21.2286 14.3445 21.7845C14.0556 22.3405 13.9048 22.9578 13.9048 23.5843V24.8352C14.6366 24.8352 15.9265 23.7616 16.697 23.1201C16.856 22.9865 17.0166 22.8548 17.1788 22.7251C17.5201 22.4693 17.9348 22.3304 18.3613 22.3291C18.7878 22.3278 19.2033 22.4642 19.5462 22.7178C19.7048 22.8411 19.8891 22.9938 20.0842 23.1555C20.8419 23.7839 22.1107 24.8352 22.8257 24.8352V23.5843C22.8258 22.9578 22.675 22.3405 22.3861 21.7846C22.0973 21.2286 21.6788 20.7504 21.1662 20.3903Z" fill="#4B4D5F"/>
<path d="M23.6624 27.9018H13.0688C12.9949 27.9018 12.924 27.8724 12.8717 27.8201C12.8194 27.7678 12.79 27.6969 12.79 27.623C12.79 27.549 12.8194 27.4781 12.8717 27.4258C12.924 27.3736 12.9949 27.3442 13.0688 27.3442H23.6624C23.7364 27.3442 23.8073 27.3736 23.8596 27.4258C23.9118 27.4781 23.9412 27.549 23.9412 27.623C23.9412 27.6969 23.9118 27.7678 23.8596 27.8201C23.8073 27.8724 23.7364 27.9018 23.6624 27.9018ZM23.6624 10.6174H13.0688C12.9949 10.6174 12.924 10.5881 12.8717 10.5358C12.8194 10.4835 12.79 10.4126 12.79 10.3387C12.79 10.2647 12.8194 10.1938 12.8717 10.1415C12.924 10.0892 12.9949 10.0599 13.0688 10.0599H23.6624C23.7364 10.0599 23.8073 10.0892 23.8596 10.1415C23.9118 10.1938 23.9412 10.2647 23.9412 10.3387C23.9412 10.4126 23.9118 10.4835 23.8596 10.5358C23.8073 10.5881 23.7364 10.6174 23.6624 10.6174Z" fill="#4B4D5F"/>
</g>
<defs>
<clipPath id="clip0_1524_698">
<rect width="17.8419" height="17.8419" fill="white" transform="translate(9.44434 10.0598)"/>
</clipPath>
</defs>
</svg>
