<svg width="36" height="36" viewBox="0 0 36 36" fill="none" xmlns="http://www.w3.org/2000/svg">
<circle cx="18" cy="18" r="18" fill="#E87850"/>
<path d="M26 13.4206C25.405 13.6615 24.771 13.8212 24.11 13.8988C24.79 13.524 25.309 12.9351 25.553 12.2252C24.919 12.5742 24.219 12.8206 23.473 12.9582C22.871 12.3665 22.013 12 21.077 12C19.261 12 17.799 13.3606 17.799 15.0286C17.799 15.2686 17.821 15.4994 17.875 15.7191C15.148 15.5963 12.735 14.3898 11.114 12.552C10.831 13.0052 10.665 13.524 10.665 14.0825C10.665 15.1311 11.25 16.0606 12.122 16.5988C11.595 16.5895 11.078 16.4483 10.64 16.2258C10.64 16.2351 10.64 16.2471 10.64 16.2591C10.64 17.7305 11.777 18.9526 13.268 19.2342C13.001 19.3015 12.71 19.3338 12.408 19.3338C12.198 19.3338 11.986 19.3228 11.787 19.2822C12.212 20.4812 13.418 21.3628 14.852 21.3914C13.736 22.1972 12.319 22.6828 10.785 22.6828C10.516 22.6828 10.258 22.6717 10 22.6412C11.453 23.5062 13.175 24 15.032 24C21.068 24 24.368 19.3846 24.368 15.384C24.368 15.2502 24.363 15.1209 24.356 14.9926C25.007 14.5662 25.554 14.0335 26 13.4206Z" fill="white"/>
</svg>
