<svg width="37" height="37" viewBox="0 0 37 37" fill="none" xmlns="http://www.w3.org/2000/svg">
<circle cx="18.4869" cy="18.624" r="17.8419" stroke="#4B4D5F" stroke-width="0.713675"/>
<g clip-path="url(#clip0_1524_690)">
<path d="M23.1478 24.2774C20.36 23.7477 20.36 22.8835 20.36 22.3259V21.9914C21.0677 21.3289 21.5707 20.4776 21.8097 19.5381H21.8376C22.6739 19.5381 22.8969 17.7818 22.8969 17.503C22.8969 17.2243 22.9248 16.1928 22.0606 16.1928C23.8727 11.1747 18.994 9.16753 15.3141 11.7323C13.8087 11.7323 13.6693 13.9625 14.2269 16.1928C13.3627 16.1928 13.3906 17.2521 13.3906 17.503C13.3906 17.7539 13.5857 19.5381 14.4499 19.5381C14.6889 20.4776 15.1919 21.3289 15.8996 21.9914V22.3259C15.8996 22.8835 15.8996 23.7756 13.1118 24.2774C12.3315 24.4153 11.609 24.7795 11.0341 25.3247C10.4591 25.87 10.0571 26.5721 9.87793 27.3439H26.3817C26.196 26.5753 25.7919 25.8768 25.218 25.3326C24.6442 24.7885 23.9253 24.422 23.1478 24.2774Z" fill="#4B4D5F"/>
</g>
<defs>
<clipPath id="clip0_1524_690">
<rect width="17.8419" height="17.8419" fill="white" transform="translate(9.20898 10.0598)"/>
</clipPath>
</defs>
</svg>
